<svg width="56" height="56" viewBox="0 0 56 56" fill="none" xmlns="http://www.w3.org/2000/svg">
<g filter="url(#filter0_d_1_37)">
<rect x="14" y="10" width="28" height="28" rx="14" fill="#F1ECEB" shape-rendering="crispEdges"/>
<g clip-path="url(#clip0_1_37)">
<path d="M27.9874 19.7895C27.6379 19.7895 27.3558 19.5074 27.3558 19.1579V16.6316C27.3558 16.2821 27.6379 16 27.9874 16C28.3368 16 28.6189 16.2821 28.6189 16.6316V19.1579C28.6189 19.5074 28.3326 19.7895 27.9874 19.7895ZM27.3811 28.8421V31.3684C27.3811 31.7179 27.6632 32 28.0126 32C28.3621 32 28.6442 31.7179 28.6442 31.3684V28.8421C28.6442 28.4926 28.3621 28.2105 28.0126 28.2105C27.6674 28.2105 27.3811 28.4926 27.3811 28.8421ZM25.8821 20.3621C25.5789 20.5347 25.1958 20.4337 25.0189 20.1305L23.7558 17.9411C23.5832 17.6379 23.6842 17.2547 23.9874 17.0779C24.2905 16.9053 24.6737 17.0063 24.8505 17.3095L26.1137 19.4989C26.2863 19.7979 26.1853 20.1853 25.8821 20.3621ZM29.8863 28.5011L31.1495 30.6905C31.3221 30.9937 31.7095 31.0947 32.0126 30.9221C32.3158 30.7495 32.4168 30.3621 32.2442 30.0589L30.9811 27.8695C30.8084 27.5663 30.4211 27.4653 30.1179 27.6379C29.8147 27.8147 29.7137 28.2021 29.8863 28.5011ZM24.3453 21.9074C24.1726 22.2105 23.7853 22.3116 23.4821 22.1389L21.2926 20.8758C20.9895 20.7032 20.8884 20.3158 21.0611 20.0126C21.2337 19.7095 21.6211 19.6084 21.9242 19.7811L24.1137 21.0442C24.4168 21.2168 24.5221 21.6042 24.3453 21.9074ZM31.8863 26.9558L34.0758 28.2189C34.3789 28.3916 34.7663 28.2905 34.9389 27.9874C35.1116 27.6842 35.0105 27.2968 34.7074 27.1242L32.5179 25.8611C32.2147 25.6884 31.8274 25.7895 31.6547 26.0926C31.4779 26.3958 31.5832 26.7832 31.8863 26.9558ZM23.7895 24.0126C23.7895 24.3621 23.5074 24.6442 23.1579 24.6442H20.6316C20.2821 24.6442 20 24.3621 20 24.0126C20 23.6632 20.2821 23.3811 20.6316 23.3811H23.1579C23.5074 23.3811 23.7895 23.6674 23.7895 24.0126ZM32.8421 24.6189H35.3684C35.7179 24.6189 36 24.3368 36 23.9874C36 23.6379 35.7179 23.3558 35.3684 23.3558H32.8421C32.4926 23.3558 32.2105 23.6379 32.2105 23.9874C32.2105 24.3326 32.4926 24.6189 32.8421 24.6189ZM24.3621 26.1179C24.5347 26.4211 24.4337 26.8084 24.1305 26.9811L21.9411 28.2442C21.6379 28.4168 21.2547 28.3158 21.0779 28.0126C20.9053 27.7095 21.0063 27.3221 21.3095 27.1495L23.4989 25.8863C23.7979 25.7137 24.1853 25.8147 24.3621 26.1179ZM32.5011 22.1137L34.6905 20.8505C34.9937 20.6779 35.0947 20.2905 34.9221 19.9874C34.7495 19.6842 34.3621 19.5832 34.0589 19.7558L31.8695 21.0189C31.5663 21.1916 31.4653 21.5789 31.6379 21.8821C31.8147 22.1853 32.2021 22.2863 32.5011 22.1137ZM25.9074 27.6547C26.2105 27.8274 26.3116 28.2147 26.1389 28.5179L24.8758 30.7074C24.7032 31.0105 24.3158 31.1116 24.0126 30.9389C23.7095 30.7663 23.6084 30.3789 23.7811 30.0758L25.0442 27.8863C25.2168 27.5832 25.6042 27.4779 25.9074 27.6547ZM30.9558 20.1137L32.2189 17.9242C32.3916 17.6211 32.2905 17.2379 31.9874 17.0611C31.6842 16.8884 31.2968 16.9895 31.1242 17.2926L29.8611 19.4821C29.6884 19.7853 29.7895 20.1684 30.0926 20.3453C30.3958 20.5221 30.7832 20.4168 30.9558 20.1137Z" fill="#F5461B"/>
</g>
</g>
<defs>
<filter id="filter0_d_1_37" x="0" y="0" width="56" height="56" filterUnits="userSpaceOnUse" color-interpolation-filters="sRGB">
<feFlood flood-opacity="0" result="BackgroundImageFix"/>
<feColorMatrix in="SourceAlpha" type="matrix" values="0 0 0 0 0 0 0 0 0 0 0 0 0 0 0 0 0 0 127 0" result="hardAlpha"/>
<feOffset dy="4"/>
<feGaussianBlur stdDeviation="7"/>
<feComposite in2="hardAlpha" operator="out"/>
<feColorMatrix type="matrix" values="0 0 0 0 0 0 0 0 0 0 0 0 0 0 0 0 0 0 0.01 0"/>
<feBlend mode="normal" in2="BackgroundImageFix" result="effect1_dropShadow_1_37"/>
<feBlend mode="normal" in="SourceGraphic" in2="effect1_dropShadow_1_37" result="shape"/>
</filter>
<clipPath id="clip0_1_37">
<rect width="16" height="16" fill="white" transform="translate(20 16)"/>
</clipPath>
</defs>
</svg>
