<svg width="16" height="16" viewBox="0 0 16 16" fill="none" xmlns="http://www.w3.org/2000/svg">
<path d="M7.98737 3.78947C7.63789 3.78947 7.35579 3.50737 7.35579 3.15789V0.631579C7.35579 0.282105 7.63789 0 7.98737 0C8.33684 0 8.61895 0.282105 8.61895 0.631579V3.15789C8.61895 3.50737 8.33263 3.78947 7.98737 3.78947ZM7.38105 12.8421V15.3684C7.38105 15.7179 7.66316 16 8.01263 16C8.36211 16 8.64421 15.7179 8.64421 15.3684V12.8421C8.64421 12.4926 8.36211 12.2105 8.01263 12.2105C7.66737 12.2105 7.38105 12.4926 7.38105 12.8421ZM5.88211 4.36211C5.57895 4.53474 5.19579 4.43368 5.01895 4.13053L3.75579 1.94105C3.58316 1.63789 3.68421 1.25474 3.98737 1.07789C4.29053 0.905263 4.67368 1.00632 4.85053 1.30947L6.11368 3.49895C6.28632 3.7979 6.18526 4.18526 5.88211 4.36211ZM9.88632 12.5011L11.1495 14.6905C11.3221 14.9937 11.7095 15.0947 12.0126 14.9221C12.3158 14.7495 12.4168 14.3621 12.2442 14.0589L10.9811 11.8695C10.8084 11.5663 10.4211 11.4653 10.1179 11.6379C9.81474 11.8147 9.71368 12.2021 9.88632 12.5011ZM4.34526 5.90737C4.17263 6.21053 3.78526 6.31158 3.48211 6.13895L1.29263 4.87579C0.989474 4.70316 0.888421 4.31579 1.06105 4.01263C1.23368 3.70947 1.62105 3.60842 1.92421 3.78105L4.11368 5.04421C4.41684 5.21684 4.52211 5.60421 4.34526 5.90737ZM11.8863 10.9558L14.0758 12.2189C14.3789 12.3916 14.7663 12.2905 14.9389 11.9874C15.1116 11.6842 15.0105 11.2968 14.7074 11.1242L12.5179 9.86105C12.2147 9.68842 11.8274 9.78947 11.6547 10.0926C11.4779 10.3958 11.5832 10.7832 11.8863 10.9558ZM3.78947 8.01263C3.78947 8.36211 3.50737 8.64421 3.15789 8.64421H0.631579C0.282105 8.64421 0 8.36211 0 8.01263C0 7.66316 0.282105 7.38105 0.631579 7.38105H3.15789C3.50737 7.38105 3.78947 7.66737 3.78947 8.01263ZM12.8421 8.61895H15.3684C15.7179 8.61895 16 8.33684 16 7.98737C16 7.63789 15.7179 7.35579 15.3684 7.35579H12.8421C12.4926 7.35579 12.2105 7.63789 12.2105 7.98737C12.2105 8.33263 12.4926 8.61895 12.8421 8.61895ZM4.36211 10.1179C4.53474 10.4211 4.43368 10.8084 4.13053 10.9811L1.94105 12.2442C1.63789 12.4168 1.25474 12.3158 1.07789 12.0126C0.905263 11.7095 1.00632 11.3221 1.30947 11.1495L3.49895 9.88632C3.7979 9.71368 4.18526 9.81474 4.36211 10.1179ZM12.5011 6.11368L14.6905 4.85053C14.9937 4.67789 15.0947 4.29053 14.9221 3.98737C14.7495 3.68421 14.3621 3.58316 14.0589 3.75579L11.8695 5.01895C11.5663 5.19158 11.4653 5.57895 11.6379 5.88211C11.8147 6.18526 12.2021 6.28632 12.5011 6.11368ZM5.90737 11.6547C6.21053 11.8274 6.31158 12.2147 6.13895 12.5179L4.87579 14.7074C4.70316 15.0105 4.31579 15.1116 4.01263 14.9389C3.70947 14.7663 3.60842 14.3789 3.78105 14.0758L5.04421 11.8863C5.21684 11.5832 5.60421 11.4779 5.90737 11.6547ZM10.9558 4.11368L12.2189 1.92421C12.3916 1.62105 12.2905 1.23789 11.9874 1.06105C11.6842 0.888421 11.2968 0.989474 11.1242 1.29263L9.86105 3.48211C9.68842 3.78526 9.78947 4.16842 10.0926 4.34526C10.3958 4.52211 10.7832 4.41684 10.9558 4.11368Z" fill="#F5461B"/>
</svg>
