<svg width="12" height="14" viewBox="0 0 12 14" fill="none" xmlns="http://www.w3.org/2000/svg">
<path d="M6 13.8571C2.68571 13.8571 0 11.1714 0 7.85714C0 4.71429 2.4 2.14286 5.48571 1.85714L4.74286 1.11429C4.51429 0.885715 4.51429 0.542857 4.74286 0.314286C4.97143 0.0857147 5.31429 0.0857147 5.54286 0.314286L7.31429 2.08571C7.54286 2.31429 7.54286 2.65714 7.31429 2.88571L5.54286 4.71429C5.31429 4.94286 4.97143 4.94286 4.74286 4.71429C4.51429 4.48571 4.51429 4.14286 4.74286 3.91429L5.65714 3C3.14286 3.22857 1.14286 5.28571 1.14286 7.85714C1.14286 10.5429 3.31429 12.7143 6 12.7143C8.68571 12.7143 10.8571 10.5429 10.8571 7.85714C10.8571 7.51429 11.0857 7.28571 11.4286 7.28571C11.7714 7.28571 12 7.51429 12 7.85714C12 11.1714 9.31429 13.8571 6 13.8571Z" fill="white"/>
</svg>
